<svg xmlns="http://www.w3.org/2000/svg" viewBox="0 0 160.64 40.18">
  <defs>
    <style>
      .cls-1 {
        fill: #d5d2ca;
      }

      .cls-2 {
        fill: #e0684b;
      }

      .cls-3 {
        fill: #bb464b;
      }

      .cls-4 {
        fill: #e0ded8;
      }

      .cls-5 {
        fill: #fff;
      }
    </style>
  </defs>
  <title>Asset 1</title>
  <g id="Layer_2" data-name="Layer 2">
    <g id="Layer_1-2" data-name="Layer 1">
      <g id="Header_Bar" data-name="Header Bar">
        <path class="cls-1" d="M41.27,10h3.41v7.65c.61-1,1.82-2,4.21-2,3.74,0,5.78,3.08,5.78,7.13s-2.12,7.67-6.16,7.67c-2.15,0-3.17-.71-3.86-1.84a10.86,10.86,0,0,1-.13,1.51H41.24V25.45Zm6.63,8.42c-2.48,0-3.38,1.65-3.38,4.68,0,2.58.79,4.59,3.32,4.59,2.15,0,3.33-1.93,3.33-4.84C51.17,20.27,50.17,18.43,47.9,18.43Z"/>
        <path class="cls-1" d="M68.59,26.66a28.55,28.55,0,0,0,.19,3.46H65.51a7.24,7.24,0,0,1-.22-1.54c-.5.85-1.51,1.87-4.1,1.87-3.39,0-4.82-2.23-4.82-4.4,0-3.19,2.56-4.68,6.72-4.68h2.14v-1c0-1.1-.35-2.26-2.47-2.26-1.87,0-2.26.86-2.45,1.9H57c.2-2.31,1.66-4.43,5.87-4.4,3.68,0,5.69,1.48,5.69,4.79Zm-3.33-3.14H63.42c-2.51,0-3.61.74-3.61,2.34a2,2,0,0,0,2,2.1,1.43,1.43,0,0,0,.29,0c2.8,0,3.16-1.93,3.16-4Z"/>
        <path class="cls-1" d="M71.67,10h3.41v7.65c.61-1,1.82-2,4.21-2,3.75,0,5.78,3.08,5.78,7.13S83,30.46,78.91,30.46c-2.15,0-3.17-.71-3.85-1.84a10.87,10.87,0,0,1-.14,1.51H71.64V25.45Zm6.63,8.42c-2.47,0-3.38,1.65-3.38,4.68,0,2.58.8,4.59,3.33,4.59,2.14,0,3.33-1.93,3.33-4.84C81.58,20.27,80.53,18.43,78.3,18.43Z"/>
        <path class="cls-1" d="M89.36,16c1.77,5.53,3,9.66,3.31,11h0c.36-1.48,1.24-4.67,3.14-11h3.41L94.37,30.62c-1.37,4.1-2.47,5.25-5.69,5.25a14.52,14.52,0,0,1-1.74-.11V33H88c1.54,0,2.25-.58,2.89-2.42L85.7,15.93Z"/>
        <path class="cls-1" d="M100.76,30.12V10h3.41V30.12Z"/>
        <path class="cls-1" d="M120.32,23.07c0,4.21-2.48,7.43-6.91,7.43s-6.79-3.13-6.79-7.37,2.55-7.43,7-7.43C117.68,15.65,120.32,18.59,120.32,23.07Zm-10.24,0c0,2.86,1.3,4.68,3.41,4.68s3.33-1.79,3.33-4.65c0-3.06-1.18-4.71-3.38-4.71s-3.36,1.58-3.36,4.68Z"/>
        <path class="cls-1" d="M122.79,19.53V16h3.3a14.83,14.83,0,0,1,.14,2,4.33,4.33,0,0,1,4.21-2.31c2.78,0,4.7,1.81,4.7,5.45v9h-3.41V21.48c0-1.76-.63-3-2.5-3s-3,1.29-3,3.9v7.76h-3.42Z"/>
        <path class="cls-1" d="M138.37,30.12V25.55H142v4.57Z"/>
        <path class="cls-1" d="M147.67,16.28V30.86c0,3.77-.91,5-3.61,5h-.85V34.19a5.61,5.61,0,0,0,.58,0c1.84,0,2-1,2-3.08V16.28Zm-1.85-3.58V9.87h1.85V12.7Z"/>
        <path class="cls-1" d="M151.85,26.24a3.46,3.46,0,0,0,3.69,2.67c2.25,0,3.16-1,3.16-2.45s-.63-2.14-3.52-2.83c-3.77-.91-4.62-2.07-4.62-3.91S152,16,155.32,16s4.81,2,5,3.94h-1.81a3,3,0,0,0-3.28-2.4c-2.2,0-2.83,1.08-2.83,2.09,0,1.16.6,1.74,3.24,2.37,4.05,1,5,2.31,5,4.37,0,2.48-2,4.13-5.15,4.13-3.35,0-5.12-1.73-5.47-4.21Z"/>
        <polygon class="cls-2" points="34.79 10.04 29.35 6.9 24.11 9.92 29.56 13.07 34.79 10.04"/>
        <polygon class="cls-2" points="5.24 13.07 22.63 3.02 17.4 0 0 10.04 5.24 13.07"/>
        <polygon class="cls-2" points="11.95 23.23 17.4 26.37 22.84 23.23 17.4 20.09 11.95 23.23"/>
        <polygon class="cls-3" points="29.56 13.07 29.56 27.11 17.4 34.13 5.24 27.11 5.24 13.07 0 10.04 0 30.13 17.4 40.18 34.79 30.13 34.79 10.04 29.56 13.07"/>
        <polygon class="cls-3" points="17.4 13.8 11.95 16.94 11.95 23.23 17.4 20.09 22.84 23.23 22.84 16.94 17.4 13.8"/>
        <polygon class="cls-4" points="29.56 13.07 22.84 16.94 22.84 23.23 17.4 26.37 17.4 34.13 29.56 27.11 29.56 13.07"/>
        <polygon class="cls-1" points="5.24 13.07 11.95 16.94 11.95 23.23 17.4 26.37 17.4 34.13 5.24 27.11 5.24 13.07"/>
        <polygon class="cls-5" points="22.63 3.02 29.35 6.9 24.11 9.92 29.56 13.07 22.84 16.94 17.4 13.8 11.95 16.94 5.24 13.07 22.63 3.02"/>
      </g>
    </g>
  </g>
</svg>
