{
    "asset" : {
        "generator" : "Khronos glTF Blender I/O v1.1.45",
        "version" : "2.0"
    },
    "scene" : 0,
    "scenes" : [
        {
            "name" : "Scene",
            "nodes" : [
                0
            ]
        }
    ],
    "nodes" : [
        {
            "mesh" : 0,
            "name" : "Hedge",
            "rotation" : [
                0,
                -1,
                0,
                3.1391647326017846e-07
            ],
            "scale" : [
                0.4273924231529236,
                0.42739102244377136,
                0.4273924231529236
            ],
            "translation" : [
                0,
                88.5,
                0
            ]
        }
    ],
    "materials" : [
        {
            "alphaMode" : "BLEND",
            "emissiveFactor" : [
                0,
                0,
                0
            ],
            "name" : "HedgeMat1",
            "pbrMetallicRoughness" : {
                "baseColorTexture" : {
                    "index" : 0,
                    "texCoord" : 0
                },
                "metallicFactor" : 0,
                "roughnessFactor" : 0.5527864098548889
            }
        },
        {
            "alphaMode" : "BLEND",
            "emissiveFactor" : [
                0,
                0,
                0
            ],
            "name" : "HedgeMat2",
            "pbrMetallicRoughness" : {
                "baseColorTexture" : {
                    "index" : 1,
                    "texCoord" : 0
                },
                "metallicFactor" : 0,
                "roughnessFactor" : 0.5527864098548889
            }
        },
        {
            "alphaMode" : "BLEND",
            "emissiveFactor" : [
                0,
                0,
                0
            ],
            "name" : "HedgeMat3",
            "pbrMetallicRoughness" : {
                "baseColorTexture" : {
                    "index" : 2,
                    "texCoord" : 0
                },
                "metallicFactor" : 0,
                "roughnessFactor" : 0.5527864098548889
            }
        },
        {
            "alphaMode" : "BLEND",
            "emissiveFactor" : [
                0,
                0,
                0
            ],
            "name" : "HedgeMat4",
            "pbrMetallicRoughness" : {
                "baseColorTexture" : {
                    "index" : 3,
                    "texCoord" : 0
                },
                "metallicFactor" : 0,
                "roughnessFactor" : 0.5527864098548889
            }
        }
    ],
    "meshes" : [
        {
            "name" : "Hedge",
            "primitives" : [
                {
                    "attributes" : {
                        "POSITION" : 0,
                        "NORMAL" : 1,
                        "TEXCOORD_0" : 2
                    },
                    "indices" : 3,
                    "material" : 0
                },
                {
                    "attributes" : {
                        "POSITION" : 4,
                        "NORMAL" : 5,
                        "TEXCOORD_0" : 6
                    },
                    "indices" : 7,
                    "material" : 1
                },
                {
                    "attributes" : {
                        "POSITION" : 8,
                        "NORMAL" : 9,
                        "TEXCOORD_0" : 10
                    },
                    "indices" : 11,
                    "material" : 2
                },
                {
                    "attributes" : {
                        "POSITION" : 12,
                        "NORMAL" : 13,
                        "TEXCOORD_0" : 14
                    },
                    "indices" : 15,
                    "material" : 3
                }
            ]
        }
    ],
    "textures" : [
        {
            "source" : 0
        },
        {
            "source" : 1
        },
        {
            "source" : 2
        },
        {
            "source" : 3
        }
    ],
    "images" : [
        {
            "bufferView" : 4,
            "mimeType" : "image/png",
            "name" : "Map #0-Map #3"
        },
        {
            "bufferView" : 9,
            "mimeType" : "image/png",
            "name" : "Map #1-Map #2"
        },
        {
            "bufferView" : 14,
            "mimeType" : "image/png",
            "name" : "Map #4-Map #5"
        },
        {
            "bufferView" : 19,
            "mimeType" : "image/png",
            "name" : "Map #6-Map #7"
        }
    ],
    "accessors" : [
        {
            "bufferView" : 0,
            "componentType" : 5126,
            "count" : 9010,
            "max" : [
                551.7423095703125,
                181.3768310546875,
                147.36941528320312
            ],
            "min" : [
                -542.3770751953125,
                -228.01885986328125,
                -149.05343627929688
            ],
            "type" : "VEC3"
        },
        {
            "bufferView" : 1,
            "componentType" : 5126,
            "count" : 9010,
            "type" : "VEC3"
        },
        {
            "bufferView" : 2,
            "componentType" : 5126,
            "count" : 9010,
            "type" : "VEC2"
        },
        {
            "bufferView" : 3,
            "componentType" : 5123,
            "count" : 18168,
            "type" : "SCALAR"
        },
        {
            "bufferView" : 5,
            "componentType" : 5126,
            "count" : 8395,
            "max" : [
                551.9896240234375,
                181.7677001953125,
                147.25930786132812
            ],
            "min" : [
                -544.0924072265625,
                -232.0758056640625,
                -149.55020141601562
            ],
            "type" : "VEC3"
        },
        {
            "bufferView" : 6,
            "componentType" : 5126,
            "count" : 8395,
            "type" : "VEC3"
        },
        {
            "bufferView" : 7,
            "componentType" : 5126,
            "count" : 8395,
            "type" : "VEC2"
        },
        {
            "bufferView" : 8,
            "componentType" : 5123,
            "count" : 16929,
            "type" : "SCALAR"
        },
        {
            "bufferView" : 10,
            "componentType" : 5126,
            "count" : 8194,
            "max" : [
                552.547607421875,
                179.95068359375,
                147.72048950195312
            ],
            "min" : [
                -544.0156860351562,
                -231.24179077148438,
                -150.14981079101562
            ],
            "type" : "VEC3"
        },
        {
            "bufferView" : 11,
            "componentType" : 5126,
            "count" : 8194,
            "type" : "VEC3"
        },
        {
            "bufferView" : 12,
            "componentType" : 5126,
            "count" : 8194,
            "type" : "VEC2"
        },
        {
            "bufferView" : 13,
            "componentType" : 5123,
            "count" : 16500,
            "type" : "SCALAR"
        },
        {
            "bufferView" : 15,
            "componentType" : 5126,
            "count" : 11497,
            "max" : [
                552.646728515625,
                181.2130126953125,
                147.73098754882812
            ],
            "min" : [
                -536.4758911132812,
                -229.76010131835938,
                -150.00991821289062
            ],
            "type" : "VEC3"
        },
        {
            "bufferView" : 16,
            "componentType" : 5126,
            "count" : 11497,
            "type" : "VEC3"
        },
        {
            "bufferView" : 17,
            "componentType" : 5126,
            "count" : 11497,
            "type" : "VEC2"
        },
        {
            "bufferView" : 18,
            "componentType" : 5123,
            "count" : 23163,
            "type" : "SCALAR"
        }
    ],
    "bufferViews" : [
        {
            "buffer" : 0,
            "byteLength" : 108120,
            "byteOffset" : 0
        },
        {
            "buffer" : 0,
            "byteLength" : 108120,
            "byteOffset" : 108120
        },
        {
            "buffer" : 0,
            "byteLength" : 72080,
            "byteOffset" : 216240
        },
        {
            "buffer" : 0,
            "byteLength" : 36336,
            "byteOffset" : 288320
        },
        {
            "buffer" : 0,
            "byteLength" : 144314,
            "byteOffset" : 324656
        },
        {
            "buffer" : 0,
            "byteLength" : 100740,
            "byteOffset" : 468972
        },
        {
            "buffer" : 0,
            "byteLength" : 100740,
            "byteOffset" : 569712
        },
        {
            "buffer" : 0,
            "byteLength" : 67160,
            "byteOffset" : 670452
        },
        {
            "buffer" : 0,
            "byteLength" : 33858,
            "byteOffset" : 737612
        },
        {
            "buffer" : 0,
            "byteLength" : 149459,
            "byteOffset" : 771472
        },
        {
            "buffer" : 0,
            "byteLength" : 98328,
            "byteOffset" : 920932
        },
        {
            "buffer" : 0,
            "byteLength" : 98328,
            "byteOffset" : 1019260
        },
        {
            "buffer" : 0,
            "byteLength" : 65552,
            "byteOffset" : 1117588
        },
        {
            "buffer" : 0,
            "byteLength" : 33000,
            "byteOffset" : 1183140
        },
        {
            "buffer" : 0,
            "byteLength" : 150482,
            "byteOffset" : 1216140
        },
        {
            "buffer" : 0,
            "byteLength" : 137964,
            "byteOffset" : 1366624
        },
        {
            "buffer" : 0,
            "byteLength" : 137964,
            "byteOffset" : 1504588
        },
        {
            "buffer" : 0,
            "byteLength" : 91976,
            "byteOffset" : 1642552
        },
        {
            "buffer" : 0,
            "byteLength" : 46326,
            "byteOffset" : 1734528
        },
        {
            "buffer" : 0,
            "byteLength" : 88891,
            "byteOffset" : 1780856
        }
    ],
    "buffers" : [
        {
            "byteLength" : 1869748,
            "uri" : "data:application/octet-stream;base64,"
        }
    ]
}
