{
    "asset" : {
        "generator" : "Khronos glTF Blender I/O v1.1.45",
        "version" : "2.0"
    },
    "extensionsUsed" : [
        "KHR_texture_transform"
    ],
    "extensionsRequired" : [
        "KHR_texture_transform"
    ],
    "scene" : 0,
    "scenes" : [
        {
            "name" : "Scene",
            "nodes" : [
                0,
                1,
                2,
                3
            ]
        }
    ],
    "nodes" : [
        {
            "mesh" : 0,
            "name" : "Pisacan_flower_2",
            "rotation" : [
                0.7071460485458374,
                0,
                0,
                0.7070674896240234
            ]
        },
        {
            "mesh" : 1,
            "name" : "Pisacan_flower_2.001",
            "rotation" : [
                0.7071460485458374,
                0,
                0,
                0.7070674896240234
            ]
        },
        {
            "mesh" : 2,
            "name" : "Pisacan_flower_2.002",
            "rotation" : [
                0.7071460485458374,
                0,
                0,
                0.7070674896240234
            ]
        },
        {
            "mesh" : 3,
            "name" : "Pisacan_flower_2.003",
            "rotation" : [
                0.7071460485458374,
                0,
                0,
                0.7070674896240234
            ]
        }
    ],
    "materials" : [
        {
            "doubleSided" : true,
            "emissiveFactor" : [
                0,
                0,
                0
            ],
            "name" : "Mf_Petal",
            "pbrMetallicRoughness" : {
                "baseColorTexture" : {
                    "extensions" : {
                        "KHR_texture_transform" : {
                            "offset" : [
                                0,
                                -1
                            ]
                        }
                    },
                    "index" : 0,
                    "texCoord" : 0
                },
                "metallicFactor" : 0,
                "roughnessFactor" : 0.5527864098548889
            }
        },
        {
            "doubleSided" : true,
            "emissiveFactor" : [
                0,
                0,
                0
            ],
            "name" : "Mf_Grass",
            "pbrMetallicRoughness" : {
                "baseColorTexture" : {
                    "extensions" : {
                        "KHR_texture_transform" : {
                            "offset" : [
                                0,
                                -1
                            ]
                        }
                    },
                    "index" : 1,
                    "texCoord" : 0
                },
                "metallicFactor" : 0,
                "roughnessFactor" : 0.5527864098548889
            }
        },
        {
            "doubleSided" : true,
            "emissiveFactor" : [
                0,
                0,
                0
            ],
            "name" : "Mf_Stem",
            "pbrMetallicRoughness" : {
                "baseColorTexture" : {
                    "extensions" : {
                        "KHR_texture_transform" : {
                            "offset" : [
                                0,
                                -1
                            ]
                        }
                    },
                    "index" : 2,
                    "texCoord" : 0
                },
                "metallicFactor" : 0,
                "roughnessFactor" : 0.5527864098548889
            }
        },
        {
            "doubleSided" : true,
            "emissiveFactor" : [
                0,
                0,
                0
            ],
            "name" : "Mf_Leaf",
            "pbrMetallicRoughness" : {
                "baseColorTexture" : {
                    "extensions" : {
                        "KHR_texture_transform" : {
                            "offset" : [
                                0,
                                -1
                            ]
                        }
                    },
                    "index" : 3,
                    "texCoord" : 0
                },
                "metallicFactor" : 0,
                "roughnessFactor" : 0.5527864098548889
            }
        }
    ],
    "meshes" : [
        {
            "name" : "Mesh",
            "primitives" : [
                {
                    "attributes" : {
                        "POSITION" : 0,
                        "NORMAL" : 1,
                        "TEXCOORD_0" : 2
                    },
                    "indices" : 3,
                    "material" : 0
                }
            ]
        },
        {
            "name" : "Mesh.001",
            "primitives" : [
                {
                    "attributes" : {
                        "POSITION" : 4,
                        "NORMAL" : 5,
                        "TEXCOORD_0" : 6
                    },
                    "indices" : 7,
                    "material" : 1
                }
            ]
        },
        {
            "name" : "Mesh.002",
            "primitives" : [
                {
                    "attributes" : {
                        "POSITION" : 8,
                        "NORMAL" : 9,
                        "TEXCOORD_0" : 10
                    },
                    "indices" : 11,
                    "material" : 2
                }
            ]
        },
        {
            "name" : "Mesh.003",
            "primitives" : [
                {
                    "attributes" : {
                        "POSITION" : 12,
                        "NORMAL" : 13,
                        "TEXCOORD_0" : 14
                    },
                    "indices" : 15,
                    "material" : 3
                }
            ]
        }
    ],
    "textures" : [
        {
            "source" : 0
        },
        {
            "source" : 1
        },
        {
            "source" : 1
        },
        {
            "source" : 2
        }
    ],
    "images" : [
        {
            "bufferView" : 4,
            "mimeType" : "image/jpeg",
            "name" : "petal11"
        },
        {
            "bufferView" : 9,
            "mimeType" : "image/jpeg",
            "name" : "grass69"
        },
        {
            "bufferView" : 18,
            "mimeType" : "image/jpeg",
            "name" : "grass5"
        }
    ],
    "accessors" : [
        {
            "bufferView" : 0,
            "componentType" : 5126,
            "count" : 23100,
            "max" : [
                30.976198196411133,
                20.92327117919922,
                -41.19594955444336
            ],
            "min" : [
                -29.176794052124023,
                -20.81280517578125,
                -72.70742797851562
            ],
            "type" : "VEC3"
        },
        {
            "bufferView" : 1,
            "componentType" : 5126,
            "count" : 23100,
            "type" : "VEC3"
        },
        {
            "bufferView" : 2,
            "componentType" : 5126,
            "count" : 23100,
            "type" : "VEC2"
        },
        {
            "bufferView" : 3,
            "componentType" : 5123,
            "count" : 108000,
            "type" : "SCALAR"
        },
        {
            "bufferView" : 5,
            "componentType" : 5126,
            "count" : 4284,
            "max" : [
                29.566753387451172,
                25.332212448120117,
                0.08337552100419998
            ],
            "min" : [
                -27.336040496826172,
                -29.053442001342773,
                -36.70648956298828
            ],
            "type" : "VEC3"
        },
        {
            "bufferView" : 6,
            "componentType" : 5126,
            "count" : 4284,
            "type" : "VEC3"
        },
        {
            "bufferView" : 7,
            "componentType" : 5126,
            "count" : 4284,
            "type" : "VEC2"
        },
        {
            "bufferView" : 8,
            "componentType" : 5123,
            "count" : 21600,
            "type" : "SCALAR"
        },
        {
            "bufferView" : 10,
            "componentType" : 5126,
            "count" : 333,
            "max" : [
                21.743473052978516,
                11.950081825256348,
                0.22722464799880981
            ],
            "min" : [
                -20.375883102416992,
                -13.789410591125488,
                -63.87898254394531
            ],
            "type" : "VEC3"
        },
        {
            "bufferView" : 11,
            "componentType" : 5126,
            "count" : 333,
            "type" : "VEC3"
        },
        {
            "bufferView" : 12,
            "componentType" : 5126,
            "count" : 333,
            "type" : "VEC2"
        },
        {
            "bufferView" : 13,
            "componentType" : 5123,
            "count" : 1476,
            "type" : "SCALAR"
        },
        {
            "bufferView" : 14,
            "componentType" : 5126,
            "count" : 945,
            "max" : [
                23.2105655670166,
                14.884245872497559,
                -9.823205947875977
            ],
            "min" : [
                -20.473371505737305,
                -17.78156280517578,
                -55.55589294433594
            ],
            "type" : "VEC3"
        },
        {
            "bufferView" : 15,
            "componentType" : 5126,
            "count" : 945,
            "type" : "VEC3"
        },
        {
            "bufferView" : 16,
            "componentType" : 5126,
            "count" : 945,
            "type" : "VEC2"
        },
        {
            "bufferView" : 17,
            "componentType" : 5123,
            "count" : 3528,
            "type" : "SCALAR"
        }
    ],
    "bufferViews" : [
        {
            "buffer" : 0,
            "byteLength" : 277200,
            "byteOffset" : 0
        },
        {
            "buffer" : 0,
            "byteLength" : 277200,
            "byteOffset" : 277200
        },
        {
            "buffer" : 0,
            "byteLength" : 184800,
            "byteOffset" : 554400
        },
        {
            "buffer" : 0,
            "byteLength" : 216000,
            "byteOffset" : 739200
        },
        {
            "buffer" : 0,
            "byteLength" : 92248,
            "byteOffset" : 955200
        },
        {
            "buffer" : 0,
            "byteLength" : 51408,
            "byteOffset" : 1047448
        },
        {
            "buffer" : 0,
            "byteLength" : 51408,
            "byteOffset" : 1098856
        },
        {
            "buffer" : 0,
            "byteLength" : 34272,
            "byteOffset" : 1150264
        },
        {
            "buffer" : 0,
            "byteLength" : 43200,
            "byteOffset" : 1184536
        },
        {
            "buffer" : 0,
            "byteLength" : 19424,
            "byteOffset" : 1227736
        },
        {
            "buffer" : 0,
            "byteLength" : 3996,
            "byteOffset" : 1247160
        },
        {
            "buffer" : 0,
            "byteLength" : 3996,
            "byteOffset" : 1251156
        },
        {
            "buffer" : 0,
            "byteLength" : 2664,
            "byteOffset" : 1255152
        },
        {
            "buffer" : 0,
            "byteLength" : 2952,
            "byteOffset" : 1257816
        },
        {
            "buffer" : 0,
            "byteLength" : 11340,
            "byteOffset" : 1260768
        },
        {
            "buffer" : 0,
            "byteLength" : 11340,
            "byteOffset" : 1272108
        },
        {
            "buffer" : 0,
            "byteLength" : 7560,
            "byteOffset" : 1283448
        },
        {
            "buffer" : 0,
            "byteLength" : 7056,
            "byteOffset" : 1291008
        },
        {
            "buffer" : 0,
            "byteLength" : 43136,
            "byteOffset" : 1298064
        }
    ],
    "buffers" : [
        {
            "byteLength" : 1341200,
            "uri" : "data:application/octet-stream;base64,"
        }
    ]
}
