<svg xmlns="http://www.w3.org/2000/svg" viewBox="0 0 1440 846">
  <defs>
    <style>
      .cls-1 {
        fill: #fff;
      }

      .cls-2 {
        fill: #f3f2f2;
      }

      .cls-3 {
        fill: #d0cdcd;
      }

      .cls-4 {
        fill: #f2f2f2;
      }

      .cls-5 {
        fill: #b40000;
      }
    </style>
  </defs>
  <title>Asset 1</title>
  <g id="Layer_2" data-name="Layer 2">
    <g id="Layer_3" data-name="Layer 3">
      <rect class="cls-1" x="480" width="960" height="540" rx="30.46"/>
      <rect class="cls-2" x="520.5" y="40.5" width="459" height="459" rx="20.27"/>
      <rect class="cls-3" x="1029" y="40" width="371" height="40" rx="9.94"/>
      <rect class="cls-4" x="1029" y="271.5" width="371" height="5" rx="2.5"/>
      <circle class="cls-3" cx="1226.5" cy="274" r="7.5"/>
      <rect class="cls-4" x="1029" y="301.5" width="371" height="5" rx="2.5"/>
      <circle class="cls-3" cx="1076.5" cy="304" r="7.5"/>
      <rect class="cls-4" x="1029" y="331.5" width="371" height="5" rx="2.5"/>
      <circle class="cls-3" cx="1336.5" cy="334" r="7.5"/>
      <rect class="cls-2" x="1031" y="110" width="77" height="120" rx="10.05"/>
      <rect class="cls-5" x="1225" y="465" width="175" height="40" rx="10.03"/>
      <rect class="cls-2" x="1321" y="110" width="77" height="120" rx="10.05"/>
      <rect class="cls-2" x="1128" y="110" width="77" height="120" rx="10.05"/>
      <rect class="cls-2" x="1224" y="110" width="77" height="120" rx="10.05"/>
    </g>
    <g id="Layer_2-2" data-name="Layer 2">
      <rect class="cls-1" y="147" width="960" height="540" rx="30.46"/>
      <rect class="cls-2" x="40.5" y="187.5" width="459" height="459" rx="20.27"/>
      <rect class="cls-3" x="549" y="187" width="371" height="40" rx="9.94"/>
      <rect class="cls-2" x="549" y="470" width="175" height="80" rx="10.03"/>
      <rect class="cls-2" x="745" y="470" width="175" height="80" rx="10.08"/>
      <rect class="cls-4" x="549" y="265" width="371" height="5" rx="2.5"/>
      <circle class="cls-3" cx="646.5" cy="267.5" r="7.5"/>
      <rect class="cls-4" x="549" y="295" width="371" height="5" rx="2.5"/>
      <circle class="cls-3" cx="846.5" cy="297.5" r="7.5"/>
      <rect class="cls-4" x="549" y="325" width="371" height="5" rx="2.5"/>
      <circle class="cls-3" cx="706.5" cy="327.5" r="7.5"/>
      <rect class="cls-2" x="549" y="367" width="175" height="80" rx="10.05"/>
      <rect class="cls-2" x="745" y="367" width="175" height="80" rx="10.1"/>
      <rect class="cls-5" x="745" y="612" width="175" height="40" rx="10.03"/>
    </g>
    <g id="Layer_1-2" data-name="Layer 1">
      <rect class="cls-1" x="239" y="306" width="960" height="540" rx="30.46"/>
      <rect class="cls-2" x="279.5" y="346.5" width="459" height="459" rx="20.27"/>
      <rect class="cls-3" x="788" y="346" width="371" height="40" rx="9.94"/>
      <rect class="cls-2" x="788" y="518" width="175" height="80" rx="10.03"/>
      <rect class="cls-2" x="984" y="518" width="175" height="80" rx="10.08"/>
      <rect class="cls-2" x="788" y="415" width="175" height="80" rx="10.05"/>
      <rect class="cls-2" x="984" y="415" width="175" height="80" rx="10.1"/>
      <rect class="cls-5" x="984" y="771" width="175" height="40" rx="10.03"/>
      <rect class="cls-2" x="788" y="621" width="175" height="80" rx="10.03"/>
      <rect class="cls-2" x="984" y="621" width="175" height="80" rx="10.08"/>
    </g>
  </g>
</svg>
