<svg xmlns="http://www.w3.org/2000/svg" viewBox="0 0 960 540">
  <defs>
    <style>
      .cls-1 {
        fill: #fff;
      }

      .cls-2 {
        fill: #f3f2f2;
      }

      .cls-3 {
        fill: #d0cdcd;
      }

      .cls-4 {
        fill: #f2f2f2;
      }

      .cls-5 {
        fill: #b40000;
      }
    </style>
  </defs>
  <title>Asset 1</title>
  <g id="Layer_2" data-name="Layer 2">
    <g id="Layer_1-2" data-name="Layer 1">
      <rect class="cls-1" width="960" height="540" rx="30.46"/>
      <rect class="cls-2" x="40.5" y="40.5" width="459" height="459" rx="20.27"/>
      <rect class="cls-3" x="549" y="40" width="371" height="40" rx="9.94"/>
      <rect class="cls-2" x="549" y="323" width="175" height="80" rx="10.03"/>
      <rect class="cls-2" x="745" y="323" width="175" height="80" rx="10.08"/>
      <rect class="cls-4" x="549" y="118" width="371" height="5" rx="2.5"/>
      <circle class="cls-3" cx="646.5" cy="120.5" r="7.5"/>
      <rect class="cls-4" x="549" y="148" width="371" height="5" rx="2.5"/>
      <circle class="cls-3" cx="846.5" cy="150.5" r="7.5"/>
      <rect class="cls-4" x="549" y="178" width="371" height="5" rx="2.5"/>
      <circle class="cls-3" cx="706.5" cy="180.5" r="7.5"/>
      <rect class="cls-2" x="549" y="220" width="175" height="80" rx="10.05"/>
      <rect class="cls-2" x="745" y="220" width="175" height="80" rx="10.1"/>
      <rect class="cls-5" x="745" y="465" width="175" height="40" rx="10.03"/>
    </g>
  </g>
</svg>
