{
    "asset" : {
        "generator" : "Khronos glTF Blender I/O v1.1.45",
        "version" : "2.0"
    },
    "extensionsUsed" : [
        "KHR_texture_transform"
    ],
    "extensionsRequired" : [
        "KHR_texture_transform"
    ],
    "scene" : 0,
    "scenes" : [
        {
            "name" : "Scene",
            "nodes" : [
                0,
                1,
                2,
                3,
                4,
                5
            ]
        }
    ],
    "nodes" : [
        {
            "mesh" : 0,
            "name" : "Campanula_latifolia_005",
            "rotation" : [
                0,
                -0.8594812154769897,
                0,
                0.5111672878265381
            ],
            "scale" : [
                0.10000000149011612,
                0.10000000149011612,
                0.10000000149011612
            ]
        },
        {
            "mesh" : 1,
            "name" : "Campanula_latifolia_005.001",
            "rotation" : [
                0,
                -0.8594812154769897,
                0,
                0.5111672878265381
            ],
            "scale" : [
                0.10000000149011612,
                0.10000000149011612,
                0.10000000149011612
            ]
        },
        {
            "mesh" : 2,
            "name" : "Campanula_latifolia_005.002",
            "rotation" : [
                0,
                -0.8594812154769897,
                0,
                0.5111672878265381
            ],
            "scale" : [
                0.10000000149011612,
                0.10000000149011612,
                0.10000000149011612
            ]
        },
        {
            "mesh" : 3,
            "name" : "Campanula_latifolia_005.003",
            "rotation" : [
                0,
                -0.8594812154769897,
                0,
                0.5111672878265381
            ],
            "scale" : [
                0.10000000149011612,
                0.10000000149011612,
                0.10000000149011612
            ]
        },
        {
            "mesh" : 4,
            "name" : "Campanula_latifolia_005.004",
            "rotation" : [
                0,
                -0.8594812154769897,
                0,
                0.5111672878265381
            ],
            "scale" : [
                0.10000000149011612,
                0.10000000149011612,
                0.10000000149011612
            ]
        },
        {
            "mesh" : 5,
            "name" : "Campanula_latifolia_005.005",
            "rotation" : [
                0,
                -0.8594812154769897,
                0,
                0.5111672878265381
            ],
            "scale" : [
                0.10000000149011612,
                0.10000000149011612,
                0.10000000149011612
            ]
        }
    ],
    "materials" : [
        {
            "alphaMode" : "BLEND",
            "emissiveFactor" : [
                0,
                0,
                0
            ],
            "name" : "flo_1",
            "pbrMetallicRoughness" : {
                "baseColorTexture" : {
                    "index" : 0,
                    "texCoord" : 0
                },
                "metallicFactor" : 0,
                "roughnessFactor" : 0.5527864098548889
            }
        },
        {
            "doubleSided" : true,
            "emissiveFactor" : [
                0,
                0,
                0
            ],
            "name" : "trunk",
            "normalTexture" : {
                "extensions" : {
                    "KHR_texture_transform" : {
                        "offset" : [
                            0.37500011920928955,
                            0
                        ],
                        "scale" : [
                            1.5000000894069725,
                            1
                        ]
                    }
                },
                "index" : 1,
                "texCoord" : 0
            },
            "pbrMetallicRoughness" : {
                "baseColorFactor" : [
                    0.13563336431980133,
                    0.24228115379810333,
                    0.08437623083591461,
                    1
                ],
                "metallicFactor" : 0,
                "roughnessFactor" : 0.5527864098548889
            }
        },
        {
            "alphaMode" : "BLEND",
            "doubleSided" : true,
            "emissiveFactor" : [
                0,
                0,
                0
            ],
            "name" : "leaf_1",
            "normalTexture" : {
                "index" : 2,
                "texCoord" : 0
            },
            "pbrMetallicRoughness" : {
                "baseColorTexture" : {
                    "index" : 3,
                    "texCoord" : 0
                },
                "metallicFactor" : 0,
                "roughnessFactor" : 0.5527864098548889
            }
        },
        {
            "alphaMode" : "BLEND",
            "emissiveFactor" : [
                0,
                0,
                0
            ],
            "name" : "leaf_2",
            "normalTexture" : {
                "index" : 4,
                "texCoord" : 0
            },
            "pbrMetallicRoughness" : {
                "baseColorTexture" : {
                    "index" : 5,
                    "texCoord" : 0
                },
                "metallicFactor" : 0,
                "roughnessFactor" : 0.5527864098548889
            }
        },
        {
            "alphaMode" : "BLEND",
            "emissiveFactor" : [
                0,
                0,
                0
            ],
            "name" : "leaf_3",
            "normalTexture" : {
                "index" : 6,
                "texCoord" : 0
            },
            "pbrMetallicRoughness" : {
                "baseColorTexture" : {
                    "index" : 7,
                    "texCoord" : 0
                },
                "metallicFactor" : 0,
                "roughnessFactor" : 0.5527864098548889
            }
        }
    ],
    "meshes" : [
        {
            "name" : "Mesh.004",
            "primitives" : [
                {
                    "attributes" : {
                        "POSITION" : 0,
                        "NORMAL" : 1,
                        "TEXCOORD_0" : 2
                    },
                    "indices" : 3,
                    "material" : 0
                }
            ]
        },
        {
            "name" : "Mesh.005",
            "primitives" : [
                {
                    "attributes" : {
                        "POSITION" : 4,
                        "NORMAL" : 5,
                        "TEXCOORD_0" : 6
                    },
                    "indices" : 7,
                    "material" : 1
                }
            ]
        },
        {
            "name" : "Mesh.006",
            "primitives" : [
                {
                    "attributes" : {
                        "POSITION" : 8,
                        "NORMAL" : 9,
                        "TEXCOORD_0" : 10
                    },
                    "indices" : 11,
                    "material" : 2
                }
            ]
        },
        {
            "name" : "Mesh.007",
            "primitives" : [
                {
                    "attributes" : {
                        "POSITION" : 12,
                        "NORMAL" : 13,
                        "TEXCOORD_0" : 14
                    },
                    "indices" : 15,
                    "material" : 3
                }
            ]
        },
        {
            "name" : "Mesh.008",
            "primitives" : [
                {
                    "attributes" : {
                        "POSITION" : 16,
                        "NORMAL" : 17,
                        "TEXCOORD_0" : 18
                    },
                    "indices" : 19,
                    "material" : 4
                }
            ]
        },
        {
            "name" : "Mesh.009",
            "primitives" : [
                {
                    "attributes" : {
                        "POSITION" : 20,
                        "NORMAL" : 21,
                        "TEXCOORD_0" : 22
                    },
                    "indices" : 23,
                    "material" : 0
                }
            ]
        }
    ],
    "textures" : [
        {
            "source" : 0
        },
        {
            "source" : 1
        },
        {
            "source" : 2
        },
        {
            "source" : 3
        },
        {
            "source" : 4
        },
        {
            "source" : 5
        },
        {
            "source" : 6
        },
        {
            "source" : 7
        }
    ],
    "images" : [
        {
            "mimeType" : "image/png",
            "name" : "Map #21-Map #2138387422",
            "uri" : "Map%2021-Map%202138387422.png"
        },
        {
            "mimeType" : "image/jpeg",
            "name" : "Lysimachia_punctata_tr_bump",
            "uri" : "Lysimachia_punctata_tr_bump.jpg"
        },
        {
            "mimeType" : "image/jpeg",
            "name" : "Campanula_latifolia_leaf_1_diff_NRM",
            "uri" : "Campanula_latifolia_leaf_1_diff_NRM.jpg"
        },
        {
            "mimeType" : "image/png",
            "name" : "Map #21-Map #2138387422",
            "uri" : "Map%2021-Map%202138387422-1.png"
        },
        {
            "mimeType" : "image/jpeg",
            "name" : "Campanula_latifolia_leaf_2_diff_NRM",
            "uri" : "Campanula_latifolia_leaf_2_diff_NRM.jpg"
        },
        {
            "mimeType" : "image/png",
            "name" : "Map #21-Map #2138387422",
            "uri" : "Map%2021-Map%202138387422-2.png"
        },
        {
            "mimeType" : "image/jpeg",
            "name" : "Campanula_latifolia_leaf_3_diff_NRM",
            "uri" : "Campanula_latifolia_leaf_3_diff_NRM.jpg"
        },
        {
            "mimeType" : "image/png",
            "name" : "Map #21-Map #2138387422",
            "uri" : "Map%2021-Map%202138387422-3.png"
        }
    ],
    "accessors" : [
        {
            "bufferView" : 0,
            "componentType" : 5126,
            "count" : 1978,
            "max" : [
                315.82177734375,
                1029.810302734375,
                395.1868591308594
            ],
            "min" : [
                -368.2963562011719,
                602.3189697265625,
                -454.2474060058594
            ],
            "type" : "VEC3"
        },
        {
            "bufferView" : 1,
            "componentType" : 5126,
            "count" : 1978,
            "type" : "VEC3"
        },
        {
            "bufferView" : 2,
            "componentType" : 5126,
            "count" : 1978,
            "type" : "VEC2"
        },
        {
            "bufferView" : 3,
            "componentType" : 5123,
            "count" : 4644,
            "type" : "SCALAR"
        },
        {
            "bufferView" : 4,
            "componentType" : 5126,
            "count" : 8244,
            "max" : [
                280.3036193847656,
                1063.335205078125,
                357.5571594238281
            ],
            "min" : [
                -338.5705261230469,
                -1.285891056060791,
                -394.02392578125
            ],
            "type" : "VEC3"
        },
        {
            "bufferView" : 5,
            "componentType" : 5126,
            "count" : 8244,
            "type" : "VEC3"
        },
        {
            "bufferView" : 6,
            "componentType" : 5126,
            "count" : 8244,
            "type" : "VEC2"
        },
        {
            "bufferView" : 7,
            "componentType" : 5123,
            "count" : 33978,
            "type" : "SCALAR"
        },
        {
            "bufferView" : 8,
            "componentType" : 5126,
            "count" : 7324,
            "max" : [
                421.3577575683594,
                1016.7500610351562,
                463.11920166015625
            ],
            "min" : [
                -417.6026306152344,
                42.097076416015625,
                -490.0374450683594
            ],
            "type" : "VEC3"
        },
        {
            "bufferView" : 9,
            "componentType" : 5126,
            "count" : 7324,
            "type" : "VEC3"
        },
        {
            "bufferView" : 10,
            "componentType" : 5126,
            "count" : 7324,
            "type" : "VEC2"
        },
        {
            "bufferView" : 11,
            "componentType" : 5123,
            "count" : 19764,
            "type" : "SCALAR"
        },
        {
            "bufferView" : 12,
            "componentType" : 5126,
            "count" : 3000,
            "max" : [
                324.70458984375,
                667.0390625,
                416.5457763671875
            ],
            "min" : [
                -406.0721740722656,
                51.713382720947266,
                -524.4691772460938
            ],
            "type" : "VEC3"
        },
        {
            "bufferView" : 13,
            "componentType" : 5126,
            "count" : 3000,
            "type" : "VEC3"
        },
        {
            "bufferView" : 14,
            "componentType" : 5126,
            "count" : 3000,
            "type" : "VEC2"
        },
        {
            "bufferView" : 15,
            "componentType" : 5123,
            "count" : 8238,
            "type" : "SCALAR"
        },
        {
            "bufferView" : 16,
            "componentType" : 5126,
            "count" : 2336,
            "max" : [
                387.8060302734375,
                632.0797119140625,
                495.5325927734375
            ],
            "min" : [
                -451.1286315917969,
                8.561928749084473,
                -450.5171203613281
            ],
            "type" : "VEC3"
        },
        {
            "bufferView" : 17,
            "componentType" : 5126,
            "count" : 2336,
            "type" : "VEC3"
        },
        {
            "bufferView" : 18,
            "componentType" : 5126,
            "count" : 2336,
            "type" : "VEC2"
        },
        {
            "bufferView" : 19,
            "componentType" : 5123,
            "count" : 6420,
            "type" : "SCALAR"
        },
        {
            "bufferView" : 20,
            "componentType" : 5126,
            "count" : 8736,
            "max" : [
                338.21112060546875,
                1109.62060546875,
                403.5305480957031
            ],
            "min" : [
                -393.9500427246094,
                522.8177490234375,
                -438.91619873046875
            ],
            "type" : "VEC3"
        },
        {
            "bufferView" : 21,
            "componentType" : 5126,
            "count" : 8736,
            "type" : "VEC3"
        },
        {
            "bufferView" : 22,
            "componentType" : 5126,
            "count" : 8736,
            "type" : "VEC2"
        },
        {
            "bufferView" : 23,
            "componentType" : 5123,
            "count" : 21078,
            "type" : "SCALAR"
        }
    ],
    "bufferViews" : [
        {
            "buffer" : 0,
            "byteLength" : 23736,
            "byteOffset" : 0
        },
        {
            "buffer" : 0,
            "byteLength" : 23736,
            "byteOffset" : 23736
        },
        {
            "buffer" : 0,
            "byteLength" : 15824,
            "byteOffset" : 47472
        },
        {
            "buffer" : 0,
            "byteLength" : 9288,
            "byteOffset" : 63296
        },
        {
            "buffer" : 0,
            "byteLength" : 98928,
            "byteOffset" : 72584
        },
        {
            "buffer" : 0,
            "byteLength" : 98928,
            "byteOffset" : 171512
        },
        {
            "buffer" : 0,
            "byteLength" : 65952,
            "byteOffset" : 270440
        },
        {
            "buffer" : 0,
            "byteLength" : 67956,
            "byteOffset" : 336392
        },
        {
            "buffer" : 0,
            "byteLength" : 87888,
            "byteOffset" : 404348
        },
        {
            "buffer" : 0,
            "byteLength" : 87888,
            "byteOffset" : 492236
        },
        {
            "buffer" : 0,
            "byteLength" : 58592,
            "byteOffset" : 580124
        },
        {
            "buffer" : 0,
            "byteLength" : 39528,
            "byteOffset" : 638716
        },
        {
            "buffer" : 0,
            "byteLength" : 36000,
            "byteOffset" : 678244
        },
        {
            "buffer" : 0,
            "byteLength" : 36000,
            "byteOffset" : 714244
        },
        {
            "buffer" : 0,
            "byteLength" : 24000,
            "byteOffset" : 750244
        },
        {
            "buffer" : 0,
            "byteLength" : 16476,
            "byteOffset" : 774244
        },
        {
            "buffer" : 0,
            "byteLength" : 28032,
            "byteOffset" : 790720
        },
        {
            "buffer" : 0,
            "byteLength" : 28032,
            "byteOffset" : 818752
        },
        {
            "buffer" : 0,
            "byteLength" : 18688,
            "byteOffset" : 846784
        },
        {
            "buffer" : 0,
            "byteLength" : 12840,
            "byteOffset" : 865472
        },
        {
            "buffer" : 0,
            "byteLength" : 104832,
            "byteOffset" : 878312
        },
        {
            "buffer" : 0,
            "byteLength" : 104832,
            "byteOffset" : 983144
        },
        {
            "buffer" : 0,
            "byteLength" : 69888,
            "byteOffset" : 1087976
        },
        {
            "buffer" : 0,
            "byteLength" : 42156,
            "byteOffset" : 1157864
        }
    ],
    "buffers" : [
        {
            "byteLength" : 1200020,
            "uri" : "campanula.bin"
        }
    ]
}
